<?xml version="1.0" encoding="UTF-8" standalone="no"?>
<!-- Created with Inkscape (http://www.inkscape.org/) -->

<svg
   version="1.1"
   id="svg870"
   width="127.40126"
   height="202.98813"
   viewBox="0 0 127.40126 202.98813"
   sodipodi:docname="logo-amatista.svg"
   inkscape:version="1.1.2 (0a00cf5339, 2022-02-04)"
   xmlns:inkscape="http://www.inkscape.org/namespaces/inkscape"
   xmlns:sodipodi="http://sodipodi.sourceforge.net/DTD/sodipodi-0.dtd"
   xmlns="http://www.w3.org/2000/svg"
   xmlns:svg="http://www.w3.org/2000/svg">
  <defs
     id="defs874" />
  <sodipodi:namedview
     id="namedview872"
     pagecolor="#ffffff"
     bordercolor="#666666"
     borderopacity="1.0"
     inkscape:pageshadow="2"
     inkscape:pageopacity="0.0"
     inkscape:pagecheckerboard="0"
     showgrid="false"
     inkscape:zoom="2.0946502"
     inkscape:cx="29.360511"
     inkscape:cy="101.92633"
     inkscape:window-width="1366"
     inkscape:window-height="704"
     inkscape:window-x="1080"
     inkscape:window-y="552"
     inkscape:window-maximized="1"
     inkscape:current-layer="g876"
     fit-margin-top="0"
     fit-margin-left="0"
     fit-margin-right="0"
     fit-margin-bottom="0" />
  <g
     inkscape:groupmode="layer"
     inkscape:label="Image"
     id="g876"
     transform="translate(-53.820806,-0.32509191)">
    <path
       style="fill:#9e5c99;fill-opacity:1"
       d="m 56.017363,201.91937 c -3.187367,-3.18737 -2.853453,-23.47277 0.66055,-40.12864 2.062374,-9.77537 6.902088,-22.66907 11.623107,-30.96564 9.710789,-17.06544 10.48191,-19.20569 10.448561,-29 l -0.03064,-8.999998 -11.145175,-29 c -6.12985,-15.95 -11.444475,-29.768658 -11.810281,-30.708128 -0.50789,-1.304374 0.0064,-1.852118 2.175819,-2.317293 C 80.314455,26.001878 96.698375,16.355649 102.36938,4.6409425 l 2.08926,-4.31585059 h 13.883 13.88299 l 2.16361,5.02943109 c 4.75575,11.055055 20.68628,20.672081 41.34865,24.961571 6.63167,1.37673 6.77917,-0.726893 -1.43807,20.508998 -17.26147,44.608949 -16.48564,42.160156 -16.50284,52.088878 l -0.0157,9.08888 8.18237,16.41112 c 4.50031,9.02612 9.10344,19.33612 10.22918,22.91112 6.88043,21.85008 6.69146,40.37618 -0.49899,48.92155 l -2.53812,3.01638 -57.85083,0.046 c -48.980812,0.0389 -58.070953,-0.17413 -59.286477,-1.38965 z m 81.524777,-23.59108 c 10.26543,-3.84079 17.49065,-13.63439 18.31705,-24.82827 l 0.41895,-5.67493 -1.32293,5 c -3.92682,14.84134 -13.05814,22.66373 -26.67498,22.85126 -10.52145,0.1449 -19.2653,-5.18631 -24.27117,-14.79835 -3.11514,-5.98156 -3.05971,-17.45684 0.11377,-23.55291 2.69291,-5.17291 5.39706,-8.32677 9.6574,-11.26347 l 3,-2.06793 -3.19342,3.4157 c -1.75638,1.87864 -4.10085,5.4407 -5.20992,7.9157 l -2.0165,4.5 3.00619,0.31681 c 1.6534,0.17424 4.95929,-0.62867 7.34642,-1.78427 3.81192,-1.84531 4.89806,-3.19243 8.92284,-11.0668 l 4.58259,-8.96574 h -4.43159 c -10.31582,0 -20.72192,6.91444 -23.50672,15.61929 -1.79054,5.59695 -2.632635,6.02356 -3.958715,2.0055 -0.64607,-1.95764 -2.50789,-4.68116 -4.13737,-6.05227 -2.82684,-2.37863 -9.392976,-4.41669 -10.538599,-3.27106 -1.123115,1.12311 4.878189,9.72153 7.190189,10.3018 4.16692,1.04583 4.68863,0.0354 2.01556,-3.90356 -2.13366,-3.14412 -2.24015,-3.59302 -0.65051,-2.74227 1.04544,0.5595 2.92004,2.66644 4.16578,4.6821 1.9712,3.18947 2.23529,4.82299 2.03599,12.59385 -0.3038,11.84519 1.52822,17.32183 7.938925,23.73252 8.50394,8.50394 20.21874,11.1462 31.20077,7.0373 z M 124.87611,89.932734 c 5.20805,-2.425053 8.5869,-6.45795 9.93458,-11.857642 0.93008,-3.726497 1.84498,-3.461423 3.91771,1.13507 1.82263,4.041865 4.90731,6.11493 9.09888,6.11493 2.88017,0 2.92424,-0.187953 0.9426,-4.020016 -1.58457,-3.064215 -4.26169,-4.979984 -6.95909,-4.979984 -1.34867,0 -1.41208,0.354527 -0.4024,2.25 0.65919,1.2375 1.91252,2.798188 2.78518,3.468197 0.90568,0.695358 1.08832,1.231846 0.42555,1.25 -1.31097,0.03591 -6.2482,-5.497221 -6.50929,-7.294922 -0.0937,-0.645301 -0.21423,-4.998275 -0.2678,-9.673275 -0.0773,-6.741621 -0.55906,-9.370701 -2.329,-12.708965 -7.70224,-14.527129 -25.4935,-18.38075 -38.242455,-8.283393 -5.06499,4.011546 -7.97564,9.583525 -8.5203,16.31075 l -0.41952,5.181608 0.95066,-4.414422 c 2.98029,-13.839096 16.502865,-21.8499 30.379535,-17.996905 5.57637,1.548335 12.86793,9.156136 14.55678,15.188111 2.92408,10.443761 -1.65742,22.274347 -10.4375,26.952272 -1.33008,0.708651 -1.03197,0.09509 0.89,-1.83174 2.44406,-2.450249 5.61,-8.017558 5.61,-9.865197 0,-0.292666 -1.37235,-0.532119 -3.04966,-0.532119 -5.51764,0 -8.70285,2.558478 -12.45083,10.000968 -1.92473,3.822007 -3.49951,7.185338 -3.49951,7.474068 0,1.466401 9.12903,0.212529 13.59588,-1.867394 z"
       id="path980" />
  </g>
</svg>
