<svg version="1.1" id="Capa_1" x="0" y="0" viewBox="0 0 254.91 403" xml:space="preserve" xmlns="http://www.w3.org/2000/svg"><style type="text/css" id="style1">.st35{fill:#b68dad}</style><g id="g46" transform="translate(-617.39 -527.6)"><g id="g45"><g id="g44"><path class="st35" d="M808.2 694.6c-1.3.6-2.6 1.2-3.8 1.7 1.3-.6 2.5-1.2 3.8-1.7z" id="path41"/><path class="st35" d="M688.6 637.8c-.1.1-.2.2-.2.3 0-.1.1-.2.2-.3z" id="path42"/><path class="st35" d="m808.2 694.5-6-.6z" id="path43"/><path d="m828.9 701.7 43.4-112.9c-94.9-16.4-97.8-61.2-97.8-61.2h-56.9c-13.9 49.5-97.3 60.7-97.3 60.7l43.4 113.5c8.8 23 5.7 48.7-7.8 69.2-42.5 64.5-39.7 130.3-37.4 152.1.5 4.3 4.1 7.5 8.4 7.5h229.9c33.4-33.8 5.2-115.7-21.5-158.7-13-21.1-15.3-47.1-6.4-70.2Zm-143.2-52.8c1-11.5 5.7-21.4 13.7-29.7.4-.4.9-.7 1.3-1 2.9-2.3 5.6-5.1 8.9-6.9 18.7-10.3 37.3-9.8 55.1 2.2 12.5 8.5 19.4 20.7 21.3 35.7.7 5.3.5 10.7-.8 15.9-1.5 6 0 11.4 2.8 16.6 2.5 4.4 6.2 7.7 10.5 10.2.1.1.3 0 1 0-4.9-3.6-8.4-7.9-9.8-13.6 6.2-1.5 13.2.7 16.6 7.8 1.7 3.7 3.8 7.2 6 11.2-2.2 0-4.6.1-7 0-8.4-.5-15.1-3.9-18.8-11.9-1.3-2.9-2.4-5.8-3.6-8.7-.2-.4-.4-.7-.9-1.6-.7 1.9-1.5 3.4-1.8 4.9-1.9 8.2-5.6 15.4-12 21.1-5.9 5.3-13 8.1-20.8 9.5-6 1-12.1 1.1-18.5.6 6.2-6.8 9-15.1 12.6-23 4.3-9.3 11.7-13.9 21.8-14.6 2.6-.2 5.3-.2 8.3-.4-2.9 11.5-8.5 20.7-17.9 27.5 5.3-2.6 9.8-6.2 13.7-10.6 8.8-10 13.1-21.7 12.1-35.1-2-25.7-23.4-43.5-47.3-42.3-27.8 1.4-48.2 26.5-43.8 56.2-2.6-6.8-3.3-13.4-2.7-20zM822 834.4c-1.2 13.4-6.6 24.9-16 34.6-.5.5-1 .8-1.5 1.2-3.4 2.7-6.6 6-10.3 8-21.8 12-43.4 11.5-64.2-2.6-14.6-9.9-22.6-24.1-24.8-41.5-.8-6.2-.6-12.4.9-18.5 1.7-7 0-13.3-3.3-19.3-2.9-5.2-7.2-8.9-12.2-11.9-.1-.1-.4 0-1.2 0 5.7 4.2 9.8 9.2 11.5 15.8-7.3 1.8-15.4-.8-19.3-9-2-4.3-4.5-8.4-7-13 2.6 0 5.4-.1 8.2 0 9.8.6 17.6 4.5 21.9 13.8 1.5 3.3 2.8 6.8 4.2 10.2.2.4.5.8 1 1.8.9-2.2 1.7-3.9 2.1-5.7 2.2-9.6 6.6-18 14-24.5 6.9-6.1 15.2-9.5 24.2-11 7-1.2 14-1.2 21.5-.7-7.2 8-10.5 17.6-14.7 26.8-5 10.8-13.7 16.2-25.4 17.1-3.1.2-6.1.3-9.7.4 3.4-13.4 9.9-24.1 20.9-32-6.2 3-11.5 7.2-15.9 12.3-10.2 11.7-15.3 25.3-14.1 40.9 2.3 29.9 27.3 50.6 55 49.2 32.3-1.6 56.1-30.8 51-65.5 3 7.7 3.8 15.4 3.2 23.1z" id="path44" style="fill:#a46f9b"/></g></g></g></svg>